<?xml version="1.0" encoding="UTF-8"?>
<svg xmlns="http://www.w3.org/2000/svg" width="800" height="500" viewBox="0 0 800 500">
  <defs>
    <linearGradient id="grad1" x1="0%" y1="0%" x2="100%" y2="0%">
      <stop offset="0%" style="stop-color:#4776e6;stop-opacity:1" />
      <stop offset="100%" style="stop-color:#8e54e9;stop-opacity:1" />
    </linearGradient>
    <linearGradient id="grad2" x1="0%" y1="0%" x2="100%" y2="0%">
      <stop offset="0%" style="stop-color:#f83600;stop-opacity:1" />
      <stop offset="100%" style="stop-color:#fe8c00;stop-opacity:1" />
    </linearGradient>
    <linearGradient id="grad3" x1="0%" y1="0%" x2="100%" y2="0%">
      <stop offset="0%" style="stop-color:#56ab2f;stop-opacity:1" />
      <stop offset="100%" style="stop-color:#a8e063;stop-opacity:1" />
    </linearGradient>
    <linearGradient id="grad4" x1="0%" y1="0%" x2="100%" y2="0%">
      <stop offset="0%" style="stop-color:#2193b0;stop-opacity:1" />
      <stop offset="100%" style="stop-color:#6dd5ed;stop-opacity:1" />
    </linearGradient>
    <filter id="shadow" x="-20%" y="-20%" width="140%" height="140%">
      <feDropShadow dx="3" dy="3" stdDeviation="5" flood-opacity="0.3"/>
    </filter>
    <!-- Animation definitions -->
    <style>
      @keyframes pulse {
        0% { transform: scale(1); opacity: 1; }
        50% { transform: scale(1.05); opacity: 0.8; }
        100% { transform: scale(1); opacity: 1; }
      }
      
      @keyframes rotate {
        0% { transform: rotate(0deg); }
        100% { transform: rotate(360deg); }
      }
      
      @keyframes flow {
        0% { stroke-dashoffset: 1000; }
        100% { stroke-dashoffset: 0; }
      }
      
      @keyframes fadeIn {
        0% { opacity: 0; }
        100% { opacity: 1; }
      }
      
      .pulse {
        animation: pulse 3s infinite ease-in-out;
      }
      
      .rotate {
        animation: rotate 15s infinite linear;
        transform-origin: center;
      }
      
      .flow {
        stroke-dasharray: 10;
        animation: flow 30s infinite linear;
      }
      
      .fadeIn {
        animation: fadeIn 2s ease-in;
      }
    </style>
  </defs>
  
  <!-- Background and title -->
  <rect width="800" height="500" fill="#f9f9f9"/>
  <text x="400" y="40" text-anchor="middle" font-family="Arial, sans-serif" font-size="24" font-weight="bold" fill="#333">AI-Enhanced 3D Scanning Hearing Aid System</text>
  <text x="400" y="70" text-anchor="middle" font-family="Arial, sans-serif" font-size="14" fill="#666" class="fadeIn">시스템 아키텍처 개요</text>
  
  <!-- Center system icon -->
  <circle cx="400" cy="250" r="80" fill="url(#grad1)" filter="url(#shadow)" class="pulse"/>
  <text x="400" y="245" text-anchor="middle" font-family="Arial, sans-serif" font-size="16" font-weight="bold" fill="white">AI-Enhanced</text>
  <text x="400" y="265" text-anchor="middle" font-family="Arial, sans-serif" font-size="16" font-weight="bold" fill="white">3D System</text>
  
  <!-- Modules -->
  <!-- 3D Scanner Module -->
  <g class="fadeIn" style="animation-delay: 0.2s">
    <rect x="100" y="120" rx="15" ry="15" width="140" height="80" fill="url(#grad2)" filter="url(#shadow)"/>
    <text x="170" y="155" text-anchor="middle" font-family="Arial, sans-serif" font-size="14" font-weight="bold" fill="white">3D Scanner</text>
    <text x="170" y="175" text-anchor="middle" font-family="Arial, sans-serif" font-size="12" fill="white">Hardware</text>
    
    <!-- Scanner animation -->
    <path d="M140,140 Q170,120 200,140" stroke="white" stroke-width="2" fill="none" class="flow"/>
    <path d="M140,150 Q170,170 200,150" stroke="white" stroke-width="2" fill="none" class="flow" style="animation-delay: 0.5s"/>
  </g>
  
  <!-- AI Module -->
  <g class="fadeIn" style="animation-delay: 0.4s">
    <rect x="560" y="120" rx="15" ry="15" width="140" height="80" fill="url(#grad3)" filter="url(#shadow)"/>
    <text x="630" y="155" text-anchor="middle" font-family="Arial, sans-serif" font-size="14" font-weight="bold" fill="white">AI Model</text>
    <text x="630" y="175" text-anchor="middle" font-family="Arial, sans-serif" font-size="12" fill="white">Deep Learning</text>
    
    <!-- AI animation -->
    <g class="rotate" style="transform-origin: 630px 150px;">
      <circle cx="630" cy="150" r="25" stroke="white" stroke-width="2" fill="none"/>
      <circle cx="630" cy="150" r="15" stroke="white" stroke-width="2" fill="none"/>
      <circle cx="630" cy="150" r="5" stroke="white" stroke-width="2" fill="none"/>
    </g>
  </g>
  
  <!-- LLM Module -->
  <g class="fadeIn" style="animation-delay: 0.6s">
    <rect x="100" y="300" rx="15" ry="15" width="140" height="80" fill="url(#grad4)" filter="url(#shadow)"/>
    <text x="170" y="335" text-anchor="middle" font-family="Arial, sans-serif" font-size="14" font-weight="bold" fill="white">LLM Module</text>
    <text x="170" y="355" text-anchor="middle" font-family="Arial, sans-serif" font-size="12" fill="white">Voice Interface</text>
    
    <!-- LLM animation - Sound waves -->
    <path d="M130,335 q5,-10 10,0 q5,10 10,0 q5,-10 10,0 q5,10 10,0 q5,-10 10,0 q5,10 10,0" stroke="white" stroke-width="2" fill="none" class="pulse"/>
    <path d="M130,345 q5,-5 10,0 q5,5 10,0 q5,-5 10,0 q5,5 10,0 q5,-5 10,0 q5,5 10,0" stroke="white" stroke-width="2" fill="none" class="pulse" style="animation-delay: 0.2s"/>
  </g>
  
  <!-- Manufacturing Module -->
  <g class="fadeIn" style="animation-delay: 0.8s">
    <rect x="560" y="300" rx="15" ry="15" width="140" height="80" fill="#9b59b6" filter="url(#shadow)"/>
    <text x="630" y="335" text-anchor="middle" font-family="Arial, sans-serif" font-size="14" font-weight="bold" fill="white">Manufacturing</text>
    <text x="630" y="355" text-anchor="middle" font-family="Arial, sans-serif" font-size="12" fill="white">3D Printing</text>
    
    <!-- Printer animation -->
    <rect x="610" y="365" width="40" height="5" fill="white" class="pulse"/>
    <rect x="615" y="370" width="30" height="2" fill="white" class="pulse" style="animation-delay: 0.3s"/>
    <rect x="620" y="372" width="20" height="2" fill="white" class="pulse" style="animation-delay: 0.6s"/>
  </g>
  
  <!-- Connection lines -->
  <line x1="240" y1="160" x2="320" y2="210" stroke="#666" stroke-width="2" stroke-dasharray="5,5" class="flow"/>
  <line x1="480" y1="210" x2="560" y2="160" stroke="#666" stroke-width="2" stroke-dasharray="5,5" class="flow"/>
  <line x1="240" y1="340" x2="320" y2="290" stroke="#666" stroke-width="2" stroke-dasharray="5,5" class="flow"/>
  <line x1="480" y1="290" x2="560" y2="340" stroke="#666" stroke-width="2" stroke-dasharray="5,5" class="flow"/>
  
  <!-- Data flow circles -->
  <circle cx="290" cy="195" r="8" fill="#f1c40f" class="pulse"/>
  <circle cx="510" cy="195" r="8" fill="#f1c40f" class="pulse" style="animation-delay: 0.5s"/>
  <circle cx="290" cy="305" r="8" fill="#f1c40f" class="pulse" style="animation-delay: 1s"/>
  <circle cx="510" cy="305" r="8" fill="#f1c40f" class="pulse" style="animation-delay: 1.5s"/>
  
  <!-- Legend -->
  <rect x="600" y="430" rx="5" ry="5" width="180" height="60" fill="rgba(255,255,255,0.8)" stroke="#ddd" class="fadeIn"/>
  <circle cx="620" cy="445" r="6" fill="url(#grad2)"/>
  <text x="635" y="450" font-family="Arial, sans-serif" font-size="12" fill="#333">Hardware Interface</text>
  <circle cx="620" cy="465" r="6" fill="url(#grad4)"/>
  <text x="635" y="470" font-family="Arial, sans-serif" font-size="12" fill="#333">LLM Integration</text>
  <circle cx="620" cy="485" r="6" fill="url(#grad3)"/>
  <text x="635" y="490" font-family="Arial, sans-serif" font-size="12" fill="#333">AI Processing</text>
</svg>
